<svg width="150" height="50" viewBox="0 0 150 50" fill="none" xmlns="http://www.w3.org/2000/svg">
<path d="M51.657 20.3334L46.0342 36.8667H51.0562L51.7216 34.6699H56.9153L57.5591 36.8667H62.5811L56.9799 20.3334H51.657ZM52.859 30.7261L53.9107 27.2066C54.0606 26.5925 54.2112 25.9313 54.3184 25.0811C54.4257 25.9313 54.5759 26.5925 54.7476 27.2066L55.7995 30.7261H52.859ZM75.0687 28.0806C76.6142 27.4194 77.2151 26.2145 77.2151 24.5143C77.2151 21.6325 75.2834 20.3334 71.8921 20.3334H64.3807V36.8667H71.6992C74.8539 36.8667 77.8159 35.8984 77.8159 32.1428C77.8159 30.0168 76.8284 28.6707 75.0687 28.0806ZM69.3383 24.3485H71.2055C72.0424 24.3485 72.4504 24.8916 72.4504 25.5768C72.4504 26.238 72.0424 26.8047 71.2055 26.8047L69.3383 26.7815V24.3485ZM71.4414 32.8516H69.3383V30.1593H71.4414C72.3859 30.1593 72.8798 30.6314 72.8798 31.5054C72.8798 32.3794 72.3859 32.8516 71.4414 32.8516ZM129.733 20.3334V36.8667H134.691V25.1044H141V20.3334H129.733ZM121.291 26.2145H117.213V20.3334H112.256V36.8667H117.213V30.9857H121.291V36.8667H126.227V20.3334H121.291V26.2145ZM99.3861 20.3334L93.7631 36.8667H98.7852L99.45 34.6699H104.644L105.288 36.8667H110.31L104.709 20.3334H99.3861ZM100.588 30.7261L101.639 27.2066C101.789 26.5925 101.94 25.9313 102.047 25.0811C102.154 25.9313 102.305 26.5925 102.477 27.2066L103.528 30.7261H100.588ZM87.1871 20.3334H80.6194V36.8667H85.577V32.5447H87.1871C91.0075 32.5447 93.9261 31.0803 93.9261 26.4508C93.9261 21.7977 91.0075 20.3334 87.1871 20.3334ZM87.1436 28.0573H85.577V24.8208H87.1436C88.2814 24.8208 89.0113 25.2934 89.0113 26.4508C89.0113 27.5844 88.2814 28.0573 87.1436 28.0573Z" fill="white"/>
<path d="M33.5415 19.1587L22.3682 9.89246V20.0286L26.186 23.1946L33.5415 19.1587ZM20.8505 20.0286V9.89246L9.67697 19.1587L17.0325 23.1946L20.8505 20.0286ZM17.3069 31.2335L10.1481 38.172H33.0526L25.6971 31.2335H17.3069ZM16.3551 24.6893L9 20.6534V37.0593L16.3551 29.9299V24.6893ZM26.8634 24.6893V30.1336L34.2185 37.0719V20.6534L26.8634 24.6893Z" fill="white"/>
</svg>
