<svg width="150" height="50" viewBox="0 0 150 50" fill="none" xmlns="http://www.w3.org/2000/svg">
<path d="M48 17.875C48 18.9105 47.1046 19.75 46 19.75C44.8954 19.75 44 18.9105 44 17.875C44 16.8395 44.8954 16 46 16C47.1046 16 48 16.8395 48 17.875Z" fill="white"/>
<path d="M49.7319 17.875C49.7319 16.8395 50.6273 16 51.7319 16C56.9939 16 61.2 20.0605 61.2 25C61.2 29.9395 56.9939 34 51.7319 34H46C44.8954 34 44 33.1605 44 32.125V25C44 23.9645 44.8954 23.125 46 23.125H51.6C52.7046 23.125 53.6 23.9645 53.6 25C53.6 26.0355 52.7046 26.875 51.6 26.875H48V30.25H51.7319C54.719 30.25 57.2 27.9306 57.2 25C57.2 22.0694 54.719 19.75 51.7319 19.75C50.6273 19.75 49.7319 18.9105 49.7319 17.875Z" fill="white"/>
<path d="M67.2656 34C66.6046 34 66.1272 33.9142 65.8335 33.7425C65.5397 33.5537 65.3561 33.3048 65.2826 32.9958C65.2276 32.6869 65.2 32.3693 65.2 32.0432V17.959C65.2 17.6157 65.2276 17.2981 65.2826 17.0063C65.3561 16.7145 65.5397 16.4742 65.8335 16.2854C66.1272 16.0966 66.6138 16.0021 67.2931 16.0021C67.9909 16.0021 68.4774 16.0966 68.7528 16.2854C69.0466 16.4742 69.221 16.7145 69.2761 17.0063C69.3496 17.2981 69.3863 17.6243 69.3863 17.9847V32.0689C69.3863 32.395 69.3496 32.7126 69.2761 33.0216C69.2027 33.3134 69.0191 33.5537 68.7253 33.7425C68.4499 33.9142 67.9633 34 67.2656 34Z" fill="white"/>
<path d="M74.2452 34C73.6025 34 73.1343 33.9056 72.8406 33.7168C72.5651 33.528 72.3815 33.2876 72.2897 32.9958C72.1979 32.6869 72.152 32.3607 72.152 32.0174V17.9332C72.152 17.6071 72.1887 17.2981 72.2622 17.0063C72.3356 16.6973 72.5192 16.4484 72.813 16.2596C73.1068 16.0708 73.5933 15.985 74.2727 16.0021H79.2301C80.5521 16.0021 81.7823 16.2253 82.9207 16.6716C84.059 17.1179 85.0597 17.7444 85.9226 18.5512C86.7856 19.358 87.4558 20.3021 87.9332 21.3835C88.4105 22.4649 88.6492 23.6407 88.6492 24.911C88.6492 26.1984 88.4105 27.3999 87.9332 28.5157C87.4558 29.6143 86.7856 30.5755 85.9226 31.3995C85.0597 32.2062 84.0498 32.8413 82.8931 33.3048C81.7547 33.7683 80.5062 34 79.1475 34H74.2452ZM76.3383 30.0606H79.2301C80.2216 30.0606 81.1121 29.846 81.9016 29.4169C82.6911 28.9706 83.3154 28.3698 83.7744 27.6145C84.2335 26.8592 84.463 25.9924 84.463 25.0139C84.463 24.0355 84.2335 23.1601 83.7744 22.3877C83.3154 21.6152 82.6911 21.0144 81.9016 20.5853C81.1121 20.139 80.2124 19.9158 79.2026 19.9158H76.3383V30.0606Z" fill="white"/>
<path d="M93.4412 34C92.7802 34 92.3028 33.9142 92.009 33.7425C91.7153 33.5537 91.5317 33.3048 91.4582 32.9958C91.4031 32.6869 91.3756 32.3693 91.3756 32.0432V17.959C91.3756 17.2037 91.5317 16.6888 91.8438 16.4141C92.1559 16.1395 92.7159 16.0021 93.5238 16.0021H103.934C104.302 16.0021 104.641 16.0365 104.953 16.1051C105.266 16.1566 105.513 16.3197 105.697 16.5943C105.899 16.869 106 17.3325 106 17.9847C106 18.6027 105.899 19.049 105.697 19.3236C105.495 19.5983 105.229 19.7699 104.898 19.8386C104.586 19.8901 104.247 19.9158 103.879 19.9158H95.5619V23.2373H101.208C101.575 23.2373 101.896 23.2631 102.172 23.3146C102.466 23.3661 102.695 23.512 102.86 23.7523C103.026 23.9926 103.108 24.396 103.108 24.9625C103.108 25.5117 103.026 25.9065 102.86 26.1469C102.695 26.37 102.466 26.5073 102.172 26.5588C101.896 26.6103 101.566 26.6361 101.18 26.6361H95.5619V32.0689C95.5619 32.395 95.5251 32.7126 95.4517 33.0216C95.3783 33.3134 95.1946 33.5537 94.9009 33.7425C94.6255 33.9142 94.1389 34 93.4412 34Z" fill="white"/>
</svg>
