<svg xmlns="http://www.w3.org/2000/svg" viewBox="0 0 1951.99 2597.89"><defs><style>.cls-1{fill:#fff;fill-rule:evenodd;}</style></defs><g id="Слой_2" data-name="Слой 2"><g id="Слой_1-2" data-name="Слой 1"><g id="Слой_1-3" data-name="Слой_1"><g id="_1670378632288" data-name=" 1670378632288"><path class="cls-1" d="M244.68,434.74C98,434.74,80.39,423.35,41.35,550.38-19.64,749-13.74,987,62.91,1179.87c13.87,35,33.56,56.83,80.31,56.83H264.67c19.22,0,39.62-6.34,42-24.73,2.21-17-10.84-37.33-17.15-49.89-49.2-98-74.56-221.23-74.56-333.23,0-177.7,75.39-378.85,195.51-503.52,8.32-8.65,14-16.8,22.72-25.52C564.25,168.89,757,73,957.67,73c136.12,0,220.26,18.78,337.33,69.85,41.8,18.26,84.61,44.63,117.73,68.06,29.6,20.93,75.2,58,101.52,84.31l32.9,35.88c4.38,4.57,6.28,8.06,10.41,12.61C1662,458.51,1736.47,656.16,1736.47,815.08c0,134-20.38,231.64-75.58,350-9,19.22-42.54,71.59,28.61,71.59h116.93c45,0,64.81-17.49,79.9-50.42,12.8-27.92,24.31-69.08,32.62-100.35,47.8-180.18,43.12-362.61-10-540.72-36.32-121.64-60-110.47-201.71-110.47-11.51-29.46-63.6-102-85.24-127.94-3.14-3.77-4.63-6.36-8.13-10.27l-26.18-28.86a489.81,489.81,0,0,0-34.86-36.28C1405.8,90.78,1197.37,0,989.77,0H962.24C792.91,0,633.8,61,520.78,135L459.33,179.1C415.47,215.17,365.88,259.42,332,304.18c-22.08,29.22-76.18,98.41-87.33,130.56Z"/><path class="cls-1" d="M698.94,1860.56c70.27-12.5,124.76,39.18,134.89,96.64,12.42,70.49-38.71,125.75-96.28,136-70.43,12.56-125.64-37.91-136.38-95.87-11.78-63.46,29.93-124.72,97.77-136.81Zm-199.61,120c0,157,170,260.33,308.84,194.72,26.79-12.64,57.93-35.13,76.13-57,35.9-43.14,51.07-91.33,51.07-149.23,0-109.33-99.45-210-209.42-210H709.87c-113.57,0-210.54,98.87-210.54,221.44Z"/><path class="cls-1" d="M1571.41,1927.88c-3.22-3.61-3.09.47-2.89-16.16l.46-49.42c13.36-3.22,178.69-1.35,206.91-1.27,14.54-2.72,22.5-11.48,24.12-27.26,8.21-80.5-18.47-70.67-73.81-70.67H1533.49c-22.44,0-61.17-7.41-63.62,31.63-1.88,29.74-.09,65.86-.09,96.31,0,28.17-3.91,269.3,3.69,284.89,11.46,23.45,50.8,16.85,78.39,16.85q96.35,0,192.7,0c36.92,0,55.67,1.78,55.76-40.18,0-35.4,2-59.25-37.31-59.19q-97,.12-193.89,0v-65.83H1689.5c50.6,0,67.2,6.33,67.18-49.4,0-57.68-16.91-49.94-69.47-49.94-35.74,0-81.33,2.45-115.8-.39Z"/><path class="cls-1" d="M1197.12,2187.9c13-8.51,16.08-18.22,24.1-33.34,52.23-98.51,102.25-203.74,153.74-302.83,44.63-85.85,51.54-88.58-22.72-88.63-24.91,0-37.22-.58-48.76,15-14.7,19.91-97,189.32-119.24,234.06-3.94,7.9-5.51,13.77-11.67,19.14-24.37-50.42-50.31-101.68-75.94-153-13-25.91-25.44-50.94-38.24-76.49-19.69-39.29-24.29-38.74-75.5-38.76-58-.06-51.4,11.45-30.64,53.08,12.58,25.25,25.24,51.13,38.68,75.94,13.68,25.33,25.55,51.21,38.27,76.59l76.27,150.69c12.14,24.28,26.62,60.24,44.6,70.21a46.15,46.15,0,0,0,47-1.71Z"/><path class="cls-1" d="M251.07,2093.44V1902.52c0-121.42,12.83-139.42-50.5-139.45-38.54,0-49,4.1-48.81,47.69v284.47c0,101.87-10.08,97.55,92.4,97.55,63.49,0,127-.14,190.44,0,39.73.09,47.14-7.71,47.08-47.11-.08-37.39-.14-52.5-40.17-52.28-63.43.36-127,0-190.44,0Z"/><path class="cls-1" d="M1592.63,2380.33c-13.82-27.67-11-33.84-63.84-30.48-29.44,1.87-20.54,43.14-20.54,71.15V2561c-.09,16.46-2,30,11.92,34.3,11.73,3.61,34.25,3,40.94-4.43,9.14-10.11,2-100.85,5.15-133,11.92,18.25,28,54.15,38.57,75.3,6.42,12.8,12.53,25.16,19.11,38.24,6.75,13.41,12.61,27.12,31.11,26.52,18.31-.61,22.8-15.42,29.32-28.39l57.52-111.09c3.52,22.27.91,68.55.88,93.39,0,13.43-2.45,32,5.65,39.67,7.18,6.78,30,7.77,41.19,3.22,13.51-5.5,10.71-22.38,10.65-36V2421c0-43.51,7.76-70.38-23.43-71.2-43.89-1.16-43.47-2.1-60.35,31.74l-61.79,121.26-62.06-122.47Z"/><path class="cls-1" d="M801.64,2538c-31.39,0-32-39,0-39h23c31.94,0,31.28,39,0,39Zm-8.92-136c9.91-3.06,40.23-2.56,47.88,2.94,13.55,9.78,7.32,28.89-5.53,33.43-11.1,3.91-41.41,3.22-49.67-3.39-12.42-9.91-9.53-27.78,7.32-33Zm-75.44,23.59c0,17.51,8.7,32.11,16.36,43.59-8.92,16.24-16.36,24.53-16.36,48.18,0,45.95,36.29,79.76,79.79,79.76h32.11c43.25,0,79.79-34.55,79.79-77.47,0-26.85-6.5-31.8-16.36-50.47,44.14-66.74-9.55-127.4-58.86-127.4H792.47c-40.69,0-75.19,35-75.19,83.81Z"/><path class="cls-1" d="M217,2500.79c8.94-3.64,41.13-3,48.62,1.92,12.55,8.26,9.83,28.91-4.57,33.7-10,3.34-41.91,3.14-49.53-2.47C198.64,2524.46,201.59,2507,217,2500.79Zm.68-98.38c7.74-3.22,40.56-2.59,47.55,2,12.15,8,11.76,28.2-3.88,33.76-10.54,3.77-42.21,3.63-50.36-2.37C197.85,2426.06,202.8,2408.61,217.72,2402.41Zm100.5,66.77c16.79-28.31,26.27-58.26,3.66-91.44-18.91-27.78-37.88-35.9-84.61-36-42.73,0-66.9,11.46-83,37.59-24.92,40.58-6.06,67.4,4.81,89.81-14.12,28-28.08,56.44-3.27,92.89,17.81,26.16,40.55,35,83.73,35.08,42,0,67.42-11.4,82.51-36.29,26.13-43.06,7.38-67.37-3.88-91.68Z"/><path class="cls-1" d="M467.09,2500.79c9-3.64,41.16-3,48.65,1.92,12.56,8.26,9.83,28.91-4.6,33.7-10,3.34-41.9,3.14-49.5-2.47C448.73,2524.46,451.73,2507,467.09,2500.79Zm.72-98.38c7.7-3.22,40.52-2.59,47.52,2,12.17,8,11.78,28.2-3.86,33.76-10.57,3.77-42.23,3.63-50.38-2.37C447.93,2426.06,452.86,2408.61,467.81,2402.41Zm100.49,66.77c16.71-28.17,26.27-58.59,3.69-91.47-19.08-27.75-37.83-35.87-84.64-35.93-42.7,0-66.93,11.48-83,37.59-25.5,41.54-5,68.86,4.9,89.81-6.74,12.91-15.75,26.13-16.55,45.79-2.25,56,39.54,82.15,96.92,82.18,42,0,67.43-11.43,82.57-36.23C598.37,2518,579.45,2493.3,568.3,2469.18Z"/><path class="cls-1" d="M1311.44,2583.88l.61-82.6,92.59-.08c15.12-3.55,15.23-16,14.9-32.1s-3.47-23.55-19.2-24.62c-26.65-1.84-60.71,0-88.18,0v-37.19c16,0,117.92,4.21,127.12-4.77,6.91-6.74,6.36-27.36,4.46-38.65-3.75-22.14-51.46-14-73.13-14-130.95,0-115.91-9-115.91,57.35v87.2c0,77.06-12.23,102.28,28.74,102.28,15.39,0,22.33-.94,28-12.83Z"/><path class="cls-1" d="M678.1,2581.6c8.23-16-1.24-33.46-14.34-38.83-15.5-6.36-31.47,1.79-37.09,12.92-17.76,35.18,34.22,59.3,51.43,25.91Z"/><path class="cls-1" d="M1571.41,1927.88v-64.76c25.33,0,196.75,4.3,204.48-2.09-28.22-.08-193.55-2-206.91,1.27l-.46,49.42C1568.32,1928.35,1568.19,1924.27,1571.41,1927.88Z"/><path class="cls-1" d="M1311.44,2583.88c.66-1.29,2.29,1,3.2-11.37l-.2-29.93v-39.37l90.2-2-92.59.08-.61,82.6Z"/><path class="cls-1" d="M976,1512.66c76.84,2.94,170.54-138,312.39-262.14,156.3-136.73,286.48-273.93,297.79-426.52C1605.8,559.85,1281,265.8,976,538.38,671,265.8,346.19,559.85,365.8,824c11.34,152.59,141.52,289.79,297.82,426.52C805.47,1374.64,899.14,1515.6,976,1512.66Zm351.84-676.93c-5,40.84-29,88.25-56,112.56-14.56,13.13-28.69,26.35-42.45,40.2l-168.59,166.35c-7.73,7.68-13.1,12.8-21.14,20.1-18.53,16.82-45.07,53.69-82.52,39.51-21.14-8-71.69-60.08-89.51-78-14.23-14.29-27.47-30-42-42.82-14.16-12.5-28.86-26.84-42.29-40.36C754,1023.84,674.22,948,655.91,926c-63.63-76.26-41.55-182.21,28.47-230.12,34.28-23.48,87.09-33.23,134.36-17.54,99.12,32.91,117.46,120.82,229.93,44.52,33.34-22.6,63.87-46.83,114.89-53,95.93-11.59,176.13,69.55,164.26,165.83Z"/></g></g></g></g></svg>