<svg width="150" height="50" viewBox="0 0 150 50" fill="none" xmlns="http://www.w3.org/2000/svg">
<path d="M119.904 10C113.152 10 107.592 15.2288 107.592 21.7886C107.592 28.2534 113.053 33.5773 119.904 33.5773C126.656 33.5773 132.217 28.3484 132.217 21.7886C132.217 15.2288 126.656 10 119.904 10ZM129.437 15.2288C128.841 15.6091 128.146 15.9894 127.451 16.3697C127.054 15.6091 126.557 14.8485 125.961 14.1831C126.458 13.8979 126.954 13.5176 127.351 13.2324C128.245 13.7077 128.94 14.4683 129.437 15.2288ZM124.273 11.331C125.266 11.7113 126.16 12.1866 127.054 12.8521C126.656 13.2324 126.16 13.5176 125.663 13.8028C125.068 13.1373 124.373 12.5669 123.678 11.9965C123.876 11.7113 124.075 11.5211 124.273 11.331ZM125.266 13.9929C124.571 14.3732 123.876 14.5633 123.181 14.8485C122.883 14.1831 122.585 13.5176 122.188 12.9472C122.585 12.757 122.983 12.5669 123.28 12.2817C123.975 12.757 124.671 13.3274 125.266 13.9929ZM123.777 11.1408C123.578 11.331 123.38 11.5211 123.28 11.7113C122.585 11.331 121.99 10.9507 121.195 10.6655C122.089 10.6655 122.983 10.8556 123.777 11.1408ZM122.883 11.9965C122.585 12.1866 122.287 12.3767 121.99 12.4718C121.592 11.9014 121.195 11.426 120.798 10.8556C121.493 11.1408 122.188 11.5211 122.883 11.9965ZM120.103 10.9507C120.599 11.426 120.997 11.9965 121.394 12.6619C120.997 12.757 120.599 12.8521 120.103 12.8521V10.9507ZM120.103 13.3274C120.599 13.3274 121.195 13.2324 121.692 13.0422C122.089 13.6126 122.387 14.2781 122.685 14.9436C121.89 15.1338 120.997 15.2288 120.103 15.3239V13.3274ZM119.607 10.9507V12.8521C119.209 12.8521 118.812 12.757 118.316 12.6619C118.812 12.0915 119.209 11.5211 119.607 10.9507ZM117.919 12.4718C117.621 12.3767 117.223 12.1866 117.025 11.9965C117.72 11.6162 118.415 11.2359 119.11 10.9507C118.614 11.426 118.216 11.9014 117.919 12.4718ZM118.614 10.5704C117.919 10.8556 117.223 11.2359 116.528 11.6162C116.33 11.426 116.131 11.2359 116.032 11.0458C116.826 10.8556 117.72 10.6655 118.614 10.5704ZM127.054 30.7252C125.465 29.8695 125.366 28.6336 125.465 28.2534C125.564 27.778 125.862 27.9682 126.061 27.9682C127.153 27.9682 128.245 27.6829 129.635 26.2569C131.224 24.7358 131.72 21.3133 129.238 19.1267C126.656 16.7499 123.876 17.1302 122.089 19.3168C121.692 19.7922 120.798 20.0774 120.103 20.0774C118.911 20.0774 119.706 20.933 119.706 21.1231C119.706 21.3133 119.507 21.4084 119.408 21.4084C119.011 21.3133 119.209 21.8837 119.209 21.9788C119.209 22.0738 119.011 22.264 119.011 22.264C118.514 22.264 118.614 22.6443 118.713 22.8344C118.713 22.9295 118.713 23.1196 118.514 23.2147C118.316 23.3097 118.216 23.69 118.216 23.9752C118.216 24.4506 118.713 24.8309 119.507 25.4013C120.302 25.9717 120.401 26.5421 120.401 26.9224C120.401 27.3027 120.5 27.9682 120.599 28.3484C120.798 28.8238 120.798 29.7745 119.706 29.7745C118.316 29.8695 115.933 30.8202 115.734 30.9153C114.94 31.2005 113.947 31.2956 113.152 31.1054C112.755 30.8202 112.358 30.535 111.961 30.1548C111.762 29.6794 112.06 29.109 112.358 28.7287C112.855 29.2041 113.45 29.109 113.847 29.109C114.245 29.109 116.032 28.8238 116.33 28.7287C116.628 28.6336 116.727 28.6336 116.826 28.7287C117.521 29.0139 118.514 29.0139 118.911 27.778C119.309 26.447 118.415 26.8273 118.216 26.9224C118.117 27.0175 117.919 26.9224 118.018 26.8273C118.216 26.5421 117.919 26.5421 117.819 26.5421C117.422 26.5421 116.926 26.9224 116.826 27.0175C116.628 27.1125 116.528 27.1125 116.429 27.1125C115.933 26.8273 114.443 27.2076 113.947 26.447C113.947 26.2569 113.55 23.1196 113.351 22.5492C113.351 22.4541 113.252 22.264 113.45 22.0738C113.847 21.5034 114.84 22.0738 115.436 22.0738C116.131 22.0738 116.231 21.7886 116.429 21.5985C116.628 21.4084 116.727 21.5034 116.826 21.4084C116.926 21.3133 116.826 21.2182 116.826 21.1231C116.826 21.0281 116.926 21.1231 117.025 21.0281C117.124 20.933 117.025 20.7429 117.025 20.6478C117.223 20.3626 117.621 20.5527 117.422 19.9823C117.323 19.602 117.521 19.2218 117.72 19.0316C118.018 18.6513 119.309 16.9401 117.124 15.1338C115.039 13.4225 112.855 13.6126 111.464 15.0387C110.074 16.4647 110.769 18.5563 110.869 19.1267C110.968 19.6971 110.571 20.1724 110.074 20.3626C109.677 20.5527 108.783 21.1231 108.188 21.5985C108.287 17.0351 111.167 13.0422 115.535 11.426C115.734 11.6162 115.933 11.9014 116.131 12.0915C115.635 12.4718 114.543 13.3274 114.543 13.3274C114.543 13.3274 114.642 13.3274 114.84 13.4225C114.94 13.4225 115.138 13.5176 115.138 13.5176C115.138 13.5176 116.032 12.757 116.528 12.4718C116.826 12.757 117.223 12.9472 117.621 13.1373C117.422 13.5176 116.826 14.4683 116.826 14.4683C116.826 14.4683 116.926 14.5633 117.025 14.5633C117.124 14.6584 117.223 14.6584 117.223 14.6584C117.223 14.6584 117.819 13.6126 118.018 13.2324C118.514 13.4225 119.011 13.5176 119.507 13.5176V15.419C119.209 15.419 118.514 15.419 118.216 15.3239H118.018L118.117 15.514C118.216 15.6091 118.216 15.7042 118.316 15.7992C118.514 15.7992 119.209 15.7992 119.507 15.7992V19.3168H120.004V18.4612C120.798 18.4612 121.394 18.3661 122.089 18.2711L122.784 17.7006H122.387C121.592 17.7957 120.897 17.8908 120.302 17.8908C120.302 17.8908 120.103 17.8908 120.004 17.8908V15.7042C120.897 15.7042 121.89 15.6091 122.784 15.3239C122.983 15.8943 123.479 17.3204 123.479 17.3204L123.975 17.1302C123.975 17.1302 123.479 15.7042 123.28 15.1338C124.075 14.9436 124.77 14.5633 125.465 14.2781C126.061 14.9436 126.557 15.7042 126.954 16.4647C126.557 16.6549 125.961 16.845 125.961 16.845C126.458 16.9401 126.855 17.0351 126.855 17.0351C126.855 17.0351 127.054 16.9401 127.153 16.9401C127.153 17.0351 127.252 17.2253 127.252 17.2253L127.947 17.5105L127.848 17.3204C127.848 17.3204 127.649 16.845 127.55 16.7499C128.245 16.4647 128.94 16.0845 129.635 15.6091C130.926 17.4154 131.522 19.602 131.522 21.7886C131.72 25.4013 129.834 28.6336 127.054 30.7252Z" fill="white"/>
<path d="M106.5 13.1373L106.301 13.3274C105.606 13.8979 103.918 15.514 104.216 17.3204V17.4154L104.315 17.7957L104.514 17.6056C105.507 16.7499 106.301 15.2288 106.599 13.5176L106.698 13.0422L106.5 13.1373Z" fill="white"/>
<path d="M103.124 16.1795L103.024 16.3697C102.925 16.6549 102.727 17.3204 102.627 18.0809C102.429 19.2217 102.528 20.933 103.521 22.1689L103.719 22.5492L103.918 21.7886C104.117 20.4576 103.819 17.7006 103.322 16.4647L103.124 16.0844V16.1795Z" fill="white"/>
<path d="M101.932 20.933V21.1231C101.833 22.264 101.932 25.2111 104.415 26.8273L104.712 27.0175V26.6372C104.712 25.4963 103.322 22.1689 102.329 21.0281L102.032 20.6478L101.932 20.933Z" fill="white"/>
<path d="M102.329 26.352C102.727 28.0632 104.315 30.7252 106.897 31.5808L107.294 31.6759L107.195 31.2956C106.698 30.0597 104.216 27.1125 102.627 26.1618L102.329 25.9717V26.352Z" fill="white"/>
<path d="M107.592 15.7042L107.294 15.7992C105.408 16.9401 104.514 18.271 104.514 19.9823V20.3626L104.812 20.1724C105.805 19.3168 107.195 17.2253 107.493 16.0844L107.592 15.6091V15.7042Z" fill="white"/>
<path d="M106.4 19.3168L106.301 19.507C105.805 19.9823 104.216 21.5985 104.315 23.5949C104.315 23.8802 104.415 24.2604 104.514 24.5456L104.613 24.8309L104.812 24.5456C105.606 23.4999 106.599 20.8379 106.5 19.602V19.2217L106.4 19.3168Z" fill="white"/>
<path d="M106.5 22.8344L106.4 23.0245C105.606 24.1654 105.209 25.3062 105.209 26.447C105.209 27.2076 105.507 27.9681 106.003 28.7287L106.202 29.0139L106.301 28.7287C106.599 28.0632 106.897 26.0668 106.897 24.4506C106.897 23.8802 106.798 23.4048 106.698 23.1196L106.599 22.7393L106.5 22.8344Z" fill="white"/>
<path d="M107.294 26.7322C107.096 27.4928 106.897 28.1583 106.996 28.9188C106.996 30.44 107.791 31.6759 109.181 32.5315L109.379 32.6266L109.479 32.3413V32.0561C109.479 30.8202 108.486 27.5879 107.691 26.6372L107.493 26.352L107.294 26.7322Z" fill="white"/>
<path d="M104.712 31.4857L104.812 31.6759C105.805 33.292 107.592 35.4787 110.869 34.9082H111.167L110.968 34.7181C110.372 33.8625 106.4 31.6759 105.01 31.4857L104.613 31.3907L104.712 31.4857Z" fill="white"/>
<path d="M109.578 35.6688L109.081 35.7639L109.578 35.954C111.663 36.8096 114.245 36.9998 115.833 36.5244C116.429 36.3343 116.727 36.0491 117.124 35.6688C119.805 35.954 122.287 38.0455 123.777 39.7568L123.876 39.8519H123.975C124.174 39.7568 124.373 39.5666 124.472 39.4716L124.571 39.3765L124.472 39.2814C122.983 37.38 120.599 36.2392 120.5 36.1441C118.316 35.1934 114.543 34.4329 109.578 35.6688Z" fill="white"/>
<path d="M109.677 30.3449V30.535C109.975 32.4364 110.769 34.9082 114.145 34.623H114.344L114.245 34.4329C114.046 33.5773 110.968 31.1055 109.876 30.44L109.578 30.2498L109.677 30.3449Z" fill="white"/>
<path d="M133.111 12.9472L133.21 13.4225C133.508 15.1338 134.302 16.6549 135.295 17.5105L135.494 17.7006L135.593 17.3204V17.2253C135.891 15.419 134.203 13.8028 133.508 13.2324L133.309 13.0422L133.111 12.9472Z" fill="white"/>
<path d="M136.586 15.9894L136.387 16.3697C135.891 17.6056 135.692 20.3626 135.791 21.6936L135.99 22.4541L136.089 22.359L136.189 22.1689C137.281 20.933 137.281 19.3168 137.082 18.0809C136.983 17.2253 136.784 16.6549 136.685 16.3697L136.586 16.1795V15.9894Z" fill="white"/>
<path d="M137.877 20.7429L137.579 21.1231C136.586 22.359 135.196 25.5914 135.196 26.7323V27.1125L135.494 26.9224C137.976 25.4013 138.075 22.4541 137.976 21.2182V21.0281L137.877 20.7429Z" fill="white"/>
<path d="M137.479 25.9717L137.082 26.1618C135.494 27.1125 133.011 30.0597 132.515 31.2956L132.415 31.6759L132.813 31.5808C135.394 30.8202 137.082 28.0632 137.38 26.352V26.1618L137.479 25.9717Z" fill="white"/>
<path d="M132.217 15.514L132.316 15.9894C132.713 17.2253 133.905 19.3168 134.997 20.1724L135.295 20.3626V19.9823C135.394 18.2711 134.501 16.9401 132.614 15.7992L132.416 15.7042L132.217 15.514Z" fill="white"/>
<path d="M133.309 19.2217V19.602C133.21 20.8379 134.302 23.5949 134.997 24.5456L135.196 24.8309L135.295 24.5456C135.394 24.1654 135.494 23.8802 135.494 23.5949C135.593 21.5985 134.004 19.9823 133.508 19.507L133.408 19.4119L133.309 19.2217Z" fill="white"/>
<path d="M133.21 22.6443L133.111 23.0245C133.011 23.3097 132.912 23.7851 132.912 24.3555C132.912 25.9717 133.111 27.9682 133.508 28.6336L133.607 28.9189L133.806 28.6336C134.302 27.9682 134.6 27.2076 134.6 26.352C134.6 25.3062 134.203 24.0703 133.408 22.9295L133.309 22.7393L133.21 22.6443Z" fill="white"/>
<path d="M132.316 26.352L132.118 26.6372C131.323 27.5879 130.33 30.8202 130.33 32.0561C130.33 32.0561 130.33 32.2463 130.33 32.3413L130.43 32.6266L130.628 32.5315C132.018 31.6759 132.713 30.44 132.813 28.9188C132.813 28.2534 132.713 27.4928 132.515 26.7322L132.316 26.352Z" fill="white"/>
<path d="M135.196 31.2956L134.799 31.3907C133.408 31.5808 129.437 33.7674 128.841 34.623L128.642 34.8132H128.94C132.217 35.3836 134.004 33.197 134.997 31.5808L135.096 31.3907L135.196 31.2956Z" fill="white"/>
<path d="M119.408 36.1441C119.309 36.1441 116.926 37.38 115.436 39.2814L115.337 39.3765L115.436 39.4716C115.536 39.5666 115.833 39.7568 115.933 39.8519H116.032L116.131 39.7568C117.621 38.0455 120.103 35.8589 122.784 35.6688C123.181 36.0491 123.578 36.3343 124.075 36.5244C125.564 36.9998 128.245 36.8096 130.33 35.954L130.827 35.7639L130.33 35.6688C125.266 34.4329 121.493 35.1934 119.408 36.1441Z" fill="white"/>
<path d="M130.132 30.1547L129.834 30.3449C128.742 31.0104 125.763 33.4822 125.465 34.3378L125.366 34.5279H125.564C128.841 34.8132 129.635 32.3413 130.032 30.44V30.2498L130.132 30.1547Z" fill="white"/>
<path d="M46.3275 11.1408H50.4979V14.7535H46.3275V11.1408ZM46.7247 18.9365H50.2V36.6195H46.7247V18.9365Z" fill="white"/>
<path d="M23.8871 18.9365V36.6195H20.5111V34.0526H20.4118C19.0216 36.2392 16.6386 37.1899 14.0569 37.1899C10.1845 37.1899 8 34.3378 8 30.8202V18.9365H11.4753V29.3942C11.4753 32.4364 12.1704 34.7181 15.5464 34.7181C16.9365 34.7181 18.9224 34.0526 19.6174 32.1512C20.3125 30.535 20.3125 28.4435 20.3125 27.9681V18.9365H23.8871Z" fill="white"/>
<path d="M30.8376 21.5034C32.1285 19.3168 34.6108 18.3661 36.4974 18.3661C37.7882 18.3661 43.448 18.6513 43.448 24.3555V36.5244H39.9727V25.4013C39.9727 22.4541 38.6819 20.933 35.7031 20.933C35.7031 20.933 33.8165 20.8379 32.3271 22.264C31.8306 22.7393 30.8376 23.4999 30.8376 27.0175V36.6195H27.3623V18.9365H30.8376V21.5034Z" fill="white"/>
<path d="M64.8101 24.4878C64.6115 22.3012 63.5193 20.78 61.0369 20.78C57.7602 20.78 56.4694 23.5371 56.4694 27.6251C56.4694 31.713 57.7602 34.4701 61.0369 34.4701C63.3207 34.4701 64.7108 33.044 64.9094 30.4771H68.3847C68.0868 34.4701 65.0087 36.8468 60.9376 36.8468C55.0793 36.8468 52.6962 32.8539 52.6962 27.7201C52.6962 22.5864 55.3772 18.3082 61.2355 18.3082C65.108 18.3082 67.9875 20.685 68.1861 24.4878H64.8101Z" fill="white"/>
<path d="M73.5341 28.3484C73.2362 31.3907 74.6263 34.623 78.1016 34.623C80.7826 34.623 82.1727 33.5773 82.5699 31.0104H86.2437C85.648 35.0033 82.4706 36.9998 78.1016 36.9998C72.2433 36.9998 69.8602 33.0068 69.8602 27.8731C69.8602 22.7393 72.5412 18.4612 78.3995 18.4612C83.8607 18.5563 86.4423 21.8837 86.4423 26.7322V28.3484H73.5341ZM82.8677 26.0668C82.967 23.1196 81.5769 20.8379 78.2009 20.8379C75.3214 20.8379 73.6334 23.2147 73.6334 26.0668H82.8677Z" fill="white"/>
<path d="M90.4141 36.4294V21.2182H87.2367V18.9365H90.4141V15.1338C90.5134 11.331 93.5915 10.2852 96.1731 10.2852C96.9675 10.2852 97.8611 10.4754 98.6555 10.6655V13.4225C98.0597 13.4225 97.464 13.3274 96.8682 13.3274C94.8823 13.3274 93.7901 13.8028 93.8894 15.7042V18.9365H98.159V21.2182H93.8894V36.4294H90.4141Z" fill="white"/>
</svg>
