<svg width="2314" height="1108" viewBox="0 0 2314 1108" fill="none" xmlns="http://www.w3.org/2000/svg">
<path d="M214.987 59.0459V1092.6H0V59.0459H214.987Z" fill="#00A82D"/>
<path d="M387.204 1092.6V317.434H602.192V1092.6H387.204ZM495.203 217.511C463.241 217.511 435.82 206.913 412.942 185.717C390.401 164.184 379.13 138.446 379.13 108.503C379.13 78.896 390.401 53.4945 412.942 32.2986C435.82 10.7662 463.241 0 495.203 0C527.165 0 554.417 10.7662 576.959 32.2986C599.837 53.4945 611.276 78.896 611.276 108.503C611.276 138.446 599.837 164.184 576.959 185.717C554.417 206.913 527.165 217.511 495.203 217.511Z" fill="#00A82D"/>
<path d="M1497.09 317.434L1226.08 1092.6H983.845L712.84 317.434H939.939L1100.93 872.062H1109L1269.49 317.434H1497.09Z" fill="#00A82D"/>
<path d="M1932.36 1107.74C1853.97 1107.74 1786.18 1091.09 1728.98 1057.78C1672.12 1024.13 1628.22 977.368 1597.27 917.481C1566.31 857.258 1550.84 787.446 1550.84 708.045C1550.84 627.972 1566.31 557.992 1597.27 498.105C1628.22 437.881 1672.12 391.116 1728.98 357.808C1786.18 324.163 1853.97 307.341 1932.36 307.341C2010.75 307.341 2078.38 324.163 2135.24 357.808C2192.43 391.116 2236.51 437.881 2267.46 498.105C2298.41 557.992 2313.89 627.972 2313.89 708.045C2313.89 787.446 2298.41 857.258 2267.46 917.481C2236.51 977.368 2192.43 1024.13 2135.24 1057.78C2078.38 1091.09 2010.75 1107.74 1932.36 1107.74ZM1933.37 941.201C1969.04 941.201 1998.81 931.107 2022.7 910.921C2046.59 890.398 2064.59 862.473 2076.7 827.146C2089.15 791.82 2095.37 751.615 2095.37 706.531C2095.37 661.448 2089.15 621.243 2076.7 585.916C2064.59 550.59 2046.59 522.665 2022.7 502.142C1998.81 481.619 1969.04 471.357 1933.37 471.357C1897.37 471.357 1867.09 481.619 1842.53 502.142C1818.31 522.665 1799.97 550.59 1787.52 585.916C1775.41 621.243 1769.36 661.448 1769.36 706.531C1769.36 751.615 1775.41 791.82 1787.52 827.146C1799.97 862.473 1818.31 890.398 1842.53 910.921C1867.09 931.107 1897.37 941.201 1933.37 941.201Z" fill="#00A82D"/>
</svg>
