<svg xmlns="http://www.w3.org/2000/svg" viewBox="0 0 65.62 79.38"><defs><style>.cls-1{fill:#d64657;}.cls-2{fill:#96ca4b;}.cls-3{fill:#88b846;}.cls-4{fill:#fff;}</style></defs><g id="Слой_2" data-name="Слой 2"><g id="OBJECTS"><rect class="cls-1" x="30" width="5.62" height="18.75"/><rect class="cls-1" x="25.31" y="1.26" width="5.62" height="18.75" transform="translate(-1.55 15.49) rotate(-30)"/><rect class="cls-1" x="21.88" y="4.69" width="5.62" height="18.75" transform="translate(0.17 28.42) rotate(-60)"/><rect class="cls-1" x="14.06" y="15.94" width="18.75" height="5.63"/><rect class="cls-1" x="28.13" y="7.82" width="18.75" height="5.62" transform="translate(9.54 37.79) rotate(-60)"/><rect class="cls-1" x="31.56" y="11.25" width="18.75" height="5.62" transform="translate(-1.55 22.35) rotate(-30)"/><rect class="cls-1" x="32.81" y="15.94" width="18.75" height="5.63"/><rect class="cls-2" x="3.13" y="21.56" width="59.37" height="57.81"/><rect class="cls-3" x="3.13" y="31.56" width="59.37" height="11.25"/><rect class="cls-2" y="21.56" width="65.62" height="15.63"/><rect class="cls-1" x="27.19" y="21.56" width="11.25" height="57.81"/><rect class="cls-4" x="33.84" y="17.9" width="15.62" height="25" transform="translate(-9.3 38.36) rotate(-45)"/><path class="cls-4" d="M35.46,24.21a3.75,3.75,0,1,1,0-5.3A3.74,3.74,0,0,1,35.46,24.21Z"/><path class="cls-1" d="M34.14,22.89a1.87,1.87,0,1,1,0-2.65A1.88,1.88,0,0,1,34.14,22.89Z"/></g></g></svg>